<svg xmlns="http://www.w3.org/2000/svg" viewBox="0 0 55.7 49.75"><defs><style>.cls-1{fill:#180504;}.cls-2{fill:none;stroke:#848484;stroke-miterlimit:10;}</style></defs><title>Capture d’écran 2020-01-27 à 13.48.21</title><g id="Calque_2" data-name="Calque 2"><polygon class="cls-1" points="10.64 3.5 7.83 5.96 3.77 5.96 3.77 9.52 3.77 9.52 3.77 9.52 3.77 13.08 7.83 13.08 10.64 15.54 10.64 3.5"/><polygon class="cls-1" points="33.24 2.68 33.24 8.14 25.34 2.68 25.34 16.36 33.24 10.9 33.24 16.36 35.24 16.36 35.24 2.68 33.24 2.68"/><polygon class="cls-1" points="22.54 2.68 14.64 8.14 14.64 2.68 12.64 2.68 12.64 16.36 14.64 16.36 14.64 10.9 22.54 16.36 22.54 2.68"/><g id="tracklist"><line class="cls-2" x1="38.84" y1="13.56" x2="52.04" y2="13.56"/><line class="cls-2" x1="38.84" y1="10.87" x2="52.04" y2="10.87"/><line class="cls-2" x1="38.84" y1="8.18" x2="52.04" y2="8.18"/><line class="cls-2" x1="38.84" y1="5.49" x2="52.04" y2="5.49"/></g><g id="pause"><rect class="cls-1" x="10.45" y="23.95" width="3.55" height="18.98"/><rect class="cls-1" x="17.56" y="23.95" width="3.55" height="18.98"/></g><g id="play"><polygon class="cls-1" points="47.15 33.44 27.36 19.76 27.36 47.13 47.15 33.44"/></g></g></svg>