<?xml version="1.0" encoding="utf-8"?>
<!-- Generator: Adobe Illustrator 23.1.0, SVG Export Plug-In . SVG Version: 6.00 Build 0)  -->
<svg version="1.1" xmlns="http://www.w3.org/2000/svg" xmlns:xlink="http://www.w3.org/1999/xlink" x="0px" y="0px"
	 viewBox="0 0 55.7 49.75" style="enable-background:new 0 0 55.7 49.75;" xml:space="preserve">
<style type="text/css">
	.st0{fill:#FFFFFF;}
	.st1{display:none;fill:#EFEFEF;}
	.st2{display:none;}
	.st3{display:inline;}
	.st4{display:inline;clip-path:url(#SVGID_2_);fill:none;stroke:#000000;stroke-width:0.5;}
	.st5{fill:#180504;}
	.st6{fill:#EFEFEF;}
	.st7{clip-path:url(#SVGID_4_);fill:none;stroke:#000000;stroke-width:0.5;}
	.st8{fill:none;stroke:#000000;}
	.st9{fill:none;stroke:#848484;stroke-miterlimit:10;}
	.st10{fill:#848484;}
</style>
<g id="Calque_1">
</g>
<g id="Calque_2">
	<polygon id="volume" class="st5" points="10.64,3.5 7.83,5.96 3.77,5.96 3.77,9.52 3.77,9.52 3.77,9.52 3.77,13.08 7.83,13.08 
		10.64,15.54 	"/>
	<polygon id="next" class="st5" points="33.24,2.68 33.24,8.14 25.34,2.68 25.34,16.36 33.24,10.91 33.24,16.36 35.24,16.36 
		35.24,2.68 	"/>
	<polygon id="prev" class="st5" points="22.54,2.68 14.64,8.14 14.64,2.68 12.64,2.68 12.64,16.36 14.64,16.36 14.64,10.91 
		22.54,16.36 	"/>
	<g id="tracklist">
		<line class="st9" x1="38.84" y1="13.56" x2="52.04" y2="13.56"/>
		<line class="st9" x1="38.84" y1="10.87" x2="52.04" y2="10.87"/>
		<line class="st9" x1="38.84" y1="8.18" x2="52.04" y2="8.18"/>
		<line class="st9" x1="38.84" y1="5.49" x2="52.04" y2="5.49"/>
	</g>
	<g id="pause">
		<rect x="10.45" y="23.95" class="st5" width="3.55" height="18.98"/>
		<rect x="17.56" y="23.95" class="st5" width="3.55" height="18.98"/>
	</g>
	<polygon id="play" class="st5" points="47.15,33.44 27.36,19.76 27.36,47.12 	"/>
</g>
</svg>
